<svg xmlns="http://www.w3.org/2000/svg" viewBox="0 0 1200 630" role="img" aria-labelledby="title desc">
  <title id="title">ISRO AI Guardian Illustration</title>
  <desc id="desc">Abstract satellite protected by circular shields and data nodes</desc>
  <defs>
    <linearGradient id="bg" x1="0%" y1="0%" x2="100%" y2="100%">
      <stop offset="0%" stop-color="#0f172a" />
      <stop offset="100%" stop-color="#1d4ed8" />
    </linearGradient>
    <linearGradient id="orb" x1="0%" y1="0%" x2="100%" y2="0%">
      <stop offset="0%" stop-color="#38bdf8" />
      <stop offset="100%" stop-color="#a855f7" />
    </linearGradient>
  </defs>
  <rect width="1200" height="630" fill="url(#bg)" />
  <circle cx="600" cy="315" r="240" fill="none" stroke="#38bdf8" stroke-width="6" opacity="0.4" />
  <circle cx="600" cy="315" r="180" fill="none" stroke="#a855f7" stroke-width="4" opacity="0.5" />
  <circle cx="600" cy="315" r="120" fill="none" stroke="#f97316" stroke-width="4" opacity="0.5" />
  <circle cx="600" cy="315" r="90" fill="#0f172a" opacity="0.6" />
  <rect x="520" y="255" width="160" height="120" rx="16" ry="16" fill="#1e293b" stroke="#38bdf8" stroke-width="4" />
  <rect x="535" y="270" width="130" height="30" rx="8" ry="8" fill="#38bdf8" opacity="0.6" />
  <rect x="535" y="315" width="130" height="50" rx="10" ry="10" fill="#0f172a" stroke="#94a3b8" stroke-width="2" />
  <circle cx="600" cy="340" r="18" fill="url(#orb)" />
  <line x1="600" y1="90" x2="600" y2="180" stroke="#38bdf8" stroke-width="4" stroke-dasharray="12 10" opacity="0.7" />
  <line x1="600" y1="450" x2="600" y2="540" stroke="#38bdf8" stroke-width="4" stroke-dasharray="12 10" opacity="0.7" />
  <line x1="330" y1="315" x2="430" y2="315" stroke="#38bdf8" stroke-width="4" stroke-dasharray="12 10" opacity="0.7" />
  <line x1="770" y1="315" x2="870" y2="315" stroke="#38bdf8" stroke-width="4" stroke-dasharray="12 10" opacity="0.7" />
  <circle cx="600" cy="315" r="12" fill="#22d3ee" />
  <g fill="#f8fafc">
    <circle cx="600" cy="105" r="10" />
    <circle cx="870" cy="315" r="10" />
    <circle cx="600" cy="525" r="10" />
    <circle cx="330" cy="315" r="10" />
  </g>
  <text x="50%" y="590" text-anchor="middle" fill="#e2e8f0" font-family="Inter, Arial, sans-serif" font-size="32">ISRO AI Guardian</text>
</svg>
